<?xml version="1.0" encoding="UTF-8"?>
<svg id="_圖層_2" data-name="圖層 2" xmlns="http://www.w3.org/2000/svg" viewBox="0 0 531.65 550.17">
  <defs>
    <style>
      .cls-1 {
        fill: #231815;
      }
    </style>
  </defs>
  <g id="_圖層_1-2" data-name="圖層 1">
    <g>
      <path d="M323.2,63.36c8.46-17.35,9.55-39.12-3.71-52.27-8.77-8.69-25.25-9.37-36.76-9.67-2.26-.06-87.86.54-92.83.48-8.21-.09-16.47-2.7-17.37-1.66-1.34,1.52-.62,8.07-.2,11.98.14,1.25.26,2.33.29,3.02.31,7.01.21,14.64.1,22.01-.05,3.89-.11,7.91-.1,11.72.02,8.79.1,17.72.17,26.35.18,19.93.36,40.53-.17,60.8-.17,6.55-.06,13.27.05,19.76.12,7.45.25,15.16-.05,22.68-.11,2.75-.04,5.58.03,8.31.08,3.13.16,6.36-.03,9.51-.1,1.65-.03,3.41.03,5.12.07,2,.15,4.07-.03,5.98-.08.81-.21,1.64-.33,2.45-.39,2.51-.79,5.11.22,7.63,4.93.46,8.95.3,13.19.14,2.22-.08,7.56.6,7.88,0,1.7-3.18-11.7-5.59-11.7-29.41,0-4.43-.53-30.36-.6-36.7-.04-3.67-.09-7.46-.28-11.1-.75-14.2-.62-27.13.42-43.23,1.29-20.02,1.48-43.73,1.48-56.08s-.4-22.11,4.84-26.86c4.27-3.87,12.12-3.6,14.42-3.7.31-.01.57.02.77,0,25.78-2.29,86.28-.02,88.16,0,19.33.17,26.25,7.28,26.57,26.37.24,14.85-4.61,26.49-16.71,33.76-6.94,4.17-15.73,3.95-24.24,3.74-2.92-.07-5.68-.14-8.34-.04-3.73.15-22.77,1.08-31.91,5.17-5.96,2.67-12.3,7.29-19.38,14.13-6.34,6.13-17.84,28.3-17.25,32.17,0,0,15.8.63,16.9.57.23-1.82,1.46-11.08,3.08-15.39,3.46-9.23,12.05-20.18,20.57-24.15,13.77-6.42,29.56-7.11,42.46-6.4,9.98.55,17.06,1.28,26.71-4.64,4-2.45,11.1-7.35,13.66-12.6Z"/>
      <path d="M221.47,154.62c-8.46,17.35-9.55,39.12,3.71,52.27,8.77,8.69,25.25,9.37,36.76,9.67,2.26.06,87.86-.54,92.83-.48,8.21.09,16.47,2.7,17.37,1.66,1.34-1.52.62-8.07.2-11.98-.14-1.25-.26-2.33-.29-3.02-.31-7.01-.21-14.64-.1-22.01.05-3.89.11-7.91.1-11.72-.02-8.79-.1-17.72-.17-26.36-.18-19.93-.36-40.53.17-60.8.17-6.55.06-13.27-.05-19.76-.12-7.45-.25-15.16.05-22.68.11-2.75.04-5.58-.03-8.31-.08-3.13-.16-6.36.03-9.51.1-1.65.03-3.41-.03-5.12-.07-2-.15-4.07.03-5.98.08-.81.21-1.64.33-2.45.39-2.51.79-5.1-.22-7.63-4.93-.46-8.95-.3-13.19-.14-2.22.08-7.56-.6-7.88,0-1.7,3.18,11.7,5.59,11.7,29.41,0,4.43.53,30.36.6,36.7.04,3.67.09,7.46.28,11.1.75,14.2.62,27.13-.42,43.23-1.29,20.02-1.48,43.73-1.48,56.08s.4,22.11-4.84,26.86c-4.27,3.87-12.12,3.6-14.42,3.7-.31.01-.57-.02-.77,0-25.78,2.29-86.28.02-88.16,0-19.33-.17-26.25-7.28-26.57-26.37-.24-14.85,4.61-26.49,16.71-33.76,6.94-4.17,15.73-3.95,24.24-3.74,2.92.07,5.68.14,8.34.04,3.73-.15,22.77-1.08,31.91-5.17,5.96-2.67,12.3-7.29,19.38-14.13,6.34-6.13,17.84-28.3,17.25-32.17,0,0-15.8-.63-16.9-.57-.23,1.82-1.46,11.08-3.08,15.39-3.46,9.23-12.05,20.18-20.57,24.15-13.77,6.42-29.56,7.11-42.46,6.4-9.98-.55-17.06-1.28-26.71,4.64-4,2.45-11.1,7.35-13.66,12.6Z"/>
      <g>
        <path class="cls-1" d="M128.84,528.16v3.28h-9.05v5.62h9.05v3.31h-9.05v9.52h-4.2v-21.73h13.25Z"/>
        <path class="cls-1" d="M148.74,528.16v21.73h-4.2v-21.73h4.2Z"/>
        <path class="cls-1" d="M170.24,528.16v18.44h10.54v3.28h-14.74v-21.73h4.2Z"/>
        <path class="cls-1" d="M197.31,528.16l7.14,8.57,7.14-8.57h3.75v21.73h-4.2v-15.26h-.12l-6.28,7.65h-.59l-6.28-7.65h-.12v15.26h-4.2v-21.73h3.78Z"/>
        <path class="cls-1" d="M257.57,527.88c2.11,0,4.15.53,6.11,1.58v3.73c-2.25-1.36-4.25-2.04-5.99-2.04-1.06,0-1.88.21-2.48.61-.6.41-.89.95-.89,1.64,0,.82.55,1.58,1.66,2.27.31.21,1.51.79,3.59,1.74,1.78.84,3.07,1.77,3.86,2.8.79,1.03,1.18,2.26,1.18,3.7,0,1.87-.67,3.37-2.01,4.52-1.34,1.14-3.08,1.72-5.22,1.72-1.39,0-2.58-.15-3.58-.46-1-.31-2.12-.83-3.37-1.58v-4.14c2.32,1.93,4.51,2.89,6.56,2.89,1.03,0,1.85-.22,2.49-.67.63-.45.95-1.04.95-1.77,0-1.01-.55-1.83-1.65-2.46-.91-.5-2.09-1.09-3.53-1.79-1.71-.78-2.99-1.68-3.83-2.72-.85-1.04-1.27-2.24-1.27-3.61,0-1.82.68-3.28,2.04-4.36,1.36-1.08,3.15-1.62,5.38-1.62Z"/>
        <path class="cls-1" d="M298.09,528.16v3.28h-7.71v18.45h-4.2v-18.45h-7.71v-3.28h19.63Z"/>
        <path class="cls-1" d="M316.47,528.16v12.64c0,1.3.19,2.33.58,3.1.39.77,1.02,1.4,1.9,1.9.88.5,1.91.75,3.08.75,1.29,0,2.38-.24,3.27-.71.9-.47,1.55-1.11,1.97-1.93.41-.81.62-1.94.62-3.38v-12.36h4.2v12.91c0,2.92-.88,5.17-2.63,6.74-1.75,1.57-4.23,2.36-7.43,2.36-2.01,0-3.76-.36-5.23-1.07-1.48-.71-2.6-1.75-3.38-3.1-.78-1.35-1.16-2.94-1.16-4.77v-13.06h4.21Z"/>
        <path class="cls-1" d="M356.34,528.16c2.26,0,4.27.46,6.03,1.38,1.76.92,3.13,2.22,4.1,3.89.98,1.67,1.46,3.54,1.46,5.63s-.49,4.01-1.47,5.65c-.98,1.64-2.37,2.91-4.18,3.82-1.8.9-3.87,1.35-6.2,1.35h-8.85v-21.73h9.1ZM355.91,546.6c2.32,0,4.19-.7,5.59-2.09,1.41-1.4,2.11-3.22,2.11-5.48s-.71-4.2-2.12-5.55c-1.42-1.36-3.32-2.04-5.72-2.04h-4.32v15.16h4.46Z"/>
        <path class="cls-1" d="M386.66,528.16v21.73h-4.2v-21.73h4.2Z"/>
        <path class="cls-1" d="M411.92,527.88c2.25,0,4.27.46,6.07,1.39,1.8.93,3.23,2.27,4.3,4.01,1.07,1.75,1.6,3.66,1.6,5.75s-.52,3.92-1.56,5.65c-1.04,1.74-2.47,3.09-4.29,4.04-1.82.96-3.87,1.44-6.15,1.44s-4.29-.49-6.14-1.46c-1.84-.98-3.27-2.32-4.3-4.02-1.02-1.71-1.54-3.59-1.54-5.65s.51-3.86,1.54-5.62c1.03-1.75,2.44-3.11,4.25-4.08,1.81-.97,3.88-1.45,6.22-1.45ZM404.25,539.03c0,1.44.32,2.74.98,3.89.65,1.15,1.56,2.04,2.73,2.67,1.17.63,2.49.95,3.96.95,2.23,0,4.06-.7,5.5-2.1s2.15-3.2,2.15-5.41c0-1.44-.32-2.74-.97-3.9-.65-1.16-1.56-2.05-2.73-2.68-1.18-.63-2.5-.95-3.97-.95s-2.8.32-3.97.96c-1.18.64-2.08,1.53-2.71,2.67-.63,1.14-.95,2.44-.95,3.9Z"/>
      </g>
      <path d="M315.17,448.11c-9.86.02-10.95.11-11.21.27l-.14.11c-.31.32-.36.77-.41,1.34-.09.86-.22,2.16-1.28,3.37-.94,1.07-3.18,2.03-6.19,2.66-1.84.34-39.05.14-45.12-.21-10.9,0-13.78-18.08-8.18-33.07.28-.74.53-1.51.78-2.3l.34-1.04c1.98-5.94,7.91-15.92,10.37-19.87,3.87-6.22,8.86-11.47,13.05-16.04,3.21-3.51,9.35-8.49,12.67-10.71.89-.59,4.52-2.83,8.38-5.2,6.36-3.91,10.26-6.32,10.73-6.7,12.91-10.7,14.63-18.51,15.55-22.7l.32-1.39c.33-1.29.83-3.24-.84-3.75-.99-.3-1.63-.24-2.79-.14-.99.09-2.34.21-4.73.21-5.11,0-12.5,0-20.41-.02-17.8-.02-36.19-.04-39.74.02-4.21.07-9.77,2.31-12.71,7.17-.61,1-1.56,4.05-1.62,5.19v.79h.8c1.13,0,2.29-.05,3.42-.09,2.05-.08,7.01-.02,8.23.01,1.21.03,1.77-.54,1.77-.54,0,0,.12-.65.77-2.29.98-2.48,3.2-3.32,3.69-3.4,3.15-.49,8.39-.67,11.41-.72,3.48-.07,37.18.12,41.36.14-2,11.77-5.81,14.26-23.82,26l-3.39,2.22c-6.52,4.26-17.52,14.82-22.34,21.07-13.95,18.08-22.59,39.21-22.43,51.41.09,6.65.63,11.23,2.77,17.11.69,1.9,3.66,5.34,5.72,5.31,8.88-.21,21.32-.04,29.73.13,5.79.11,17,.15,23.97.15,3.28,0,5.61-.01,6-.03l.65-.03c5.42-.23,10.11-.44,13.22-3.98,2.58-2.92,2.86-5.67,2.97-9.23l.04-1.25h-1.31Z"/>
      <path d="M90.07,338.3c-5.61-5.54-16.17-5.81-22.49-5.98-.66-.02-12.54.06-25.13.13-14.17.08-28.82.17-30.37.16-2.49-.03-5.06-.5-6.94-.84-2.46-.45-3.48-.64-4.02-.02-.86.98-.76,3.62-.29,7.91.08.7.14,1.31.16,1.69.19,4.14.12,8.66.06,13.14-.03,2.3-.06,4.68-.06,6.93.01,5.24.06,10.56.1,15.72.11,11.87.21,24.14-.1,36.21-.1,3.92-.04,7.93.03,11.83.07,4.43.15,9-.03,13.46-.07,1.67-.03,3.37.02,5.01.05,1.85.09,11.1-.01,12.2-.43,4.24-1.32,5.75-.86,6.38.46.63,1.33.59,1.33.59,2.99.28,5.55.04,8.13-.06.48-.02,1.21.03,1.94.07.79.05,1.4.08,1.86.08.93,0,1.31-.13,1.54-.54.58-1.09-.29-1.94-1.29-2.92-1.96-1.92-5.61-5.49-5.61-14.96,0-1.51-.1-7.24-.2-12.56-.07-3.97.81-67.75.81-75.12v-1.48c-.02-6.46-.03-11.56,2.65-13.98,2.09-1.89,5.97-1.96,7.63-2h.72c.11,0,.21,0,.3-.01,6.27-.56,20.25-1.02,51.17-.04.83.02,1.33.04,1.45.04,11.13.1,14.95,3.88,15.13,14.98.15,9.13-3,15.5-9.63,19.47-3.95,2.37-9.09,2.24-14.09,2.12-1.67-.04-3.39-.08-5.03-.02-2.25.09-13.77.66-19.36,3.15-3.64,1.63-7.5,4.43-11.8,8.57-3.75,3.62-8.45,13.45-9.81,19.8-.16.77,1.02.67,1.02.67.97.04,9.84,0,10.68,0,.33,0,.74-4.09,1.76-7.81,1.82-6.68,5.19-12.63,11.12-15.5,6.58-3.19,14.81-4.3,25.02-3.75l.86.05c5.51.31,9.85.55,15.54-2.92,2.46-1.5,6.84-4.52,8.45-7.83h0c4.51-9.23,6.6-23.15-2.36-32.02Z"/>
      <path d="M524.44,449.2c7.02-11.71,8.85-23.26,5.77-36.34-2.45-10.43-9.31-18.41-20.97-24.42-5.41-2.79-12.56-4.98-19.48-7.1-9.92-3.04-19.29-5.91-23.27-10.22-7.42-8.04-6.06-20.34-.54-27.13,2.82-3.46,10.28-8.52,28.59-3.46l.57.16c10.31,2.91,17.26,4.19,20.65,3.81,8.48-.95,10.63-10.46,10.74-10.98.11-.52-.06-.95-.69-.95s-3.5-.02-5.67.03c-1.55.04-4.53.08-6.29.08,0,0-.7.08-.76.86-.06.78,1.24,2.91-2.94,3.72-2,.39-11.85-1.77-13.81-2.27-1.03-.26-2.05-.53-3.06-.79l-.25-.06c-10.27-2.7-20.97-1.84-27.92,2.22-6.37,3.73-11.71,15.25-10.78,23.27.9,7.75,2.57,13.34,8.12,17.3,8.46,6.03,18.49,8.92,27.34,11.48,6.11,1.76,11.88,3.42,16.06,5.86,9.79,5.7,15.74,13.43,17.69,22.98,2.5,12.23-2.27,24.16-7.56,31.25-3.69,4.94-7.59,7.83-16.65,8.02-5.86.14-21.4-2.77-24.49-3.67-7.21-2.1-17.07-3.1-23.08,4.04-.21.25-3.04,4.48-2.29,5.56.19.27.34.49,3.84.49,1.68,0,5.98-.05,9.6-.16h.43s.21-.39.21-.39c2.15-5.11,6.25-5.14,10.14-4.17,3.13.79,19.71,4.47,25.4,4.53,17.13.24,23.1-9.73,25.33-13.46l-.61-.45h0l.65.39Z"/>
      <path d="M194.97,449.55c-.34-.14-2.19,3.86-11.77,3.74-19.74-.25-38.87-9.68-47.4-24.57-3.58-6.26-5.12-11.54-5.67-19.51-.25-3.63-.16-7.29-.08-10.84v-.44c.06-1.85.03-8.7.02-11.62v-1.15c0-.56,0-.81,2.26-.81,3.59,0,8.48-.02,13.51-.05,10.11-.05,21.57-.1,22.63.04,2.34.31,4.52,1.03,6.1,1.56,1.66.55,2.28.76,2.8.45l.35-.26.05-.34c.31-1.99.23-5.95.22-6.13,0-.14,0-.36,0-.61.03-1.65,0-2.85-.75-3.28-.34-.2-.75-.18-1.24.12-1.03.73-4,2.41-9.32,2.41h-4.23c-7.56-.03-23.24-.07-31.22-.07-.54,0-.93-.11-1.1-.3-.03-.03-.05-.07-.07-.11h0c.17-16.33.28-26.43.34-31.56.03-2.71.04-4.04.04-4.17,0-1.8,0-2.79,10.23-2.86.89,0,2.95-.01,5.28-.02,4.01-.01,8.83-.03,10.04-.05,4.09-.07,11.86.03,16.08.12,3.18.07,7.83-.07,10.88-.07,4.74,0,9.57,2.77,10.92,3.4.68.32,1.14.54,1.61.05.69-.87.54-7.3.52-7.9l-.03-1.02c0-.21,0-.4.01-.57.03-.52.06-1.11-.45-1.49-.47-.36-1.19-.3-3.19.26l-.26.07c-2.61.73-5.49.81-7.44.74-2.31-.07-26.93-.14-28.82-.14h-1.25c-3.23.06-6.52.07-9.69.08-1.92,0-6.02-.02-14.65-.22h-.54c-2.63-.02-3.98-.59-4.78-.93-.58-.25-1.55-.65-2.05.42-.44.95-.39,3.41-.26,7.34l.04,1.19c.27,8.86-.09,25.52-.42,34-.46,11.99-.94,24.39.18,36.54,1.12,12.13,3.77,18.43,11.8,28.07,8.06,9.68,28.69,18.78,31.12,19.28,1.53.31,3.27.77,4.98,1.23,2.4.64,4.89,1.3,6.98,1.59l1.93.27c4.05.58,10.17,1.46,14.41,1.46h.48c.2,0,.59-.08.9-.53,1.19-1.72,1.09-11.11.85-11.78-.18-.5-.5-.87-.9-1.04Z"/>
      <path d="M422.08,349.78c-5.43-7.72-14.64-13.09-21.44-15.54-6.11-2.2-14.81-1.56-15.2-1.57-8.06,0-15.84,2.6-23.24,7.49-7.37,4.87-13.88,14.71-15.74,22.26l-.4,1.61c-1.47,5.87-3.73,10.73-4.44,22.63-.83,13.95-2.57,42.98,9.6,60.27,5.59,7.95,17.63,15,26.82,15.71,2.12.17,4.46.26,6.93.26,7.73,0,16.7-.93,23.75-3.56,10.77-4.02,17.61-23.29,20.2-38.58,1.54-9.09,1.77-21.52,1.77-28.12,0-19.18-3.22-35.2-8.6-42.86ZM420.3,423.89c-3.64,19.2-10.48,31.98-32.07,31.98-.3,0-.71,0-1.22.02-3.5.07-11.68.25-16.79-1.87-8.41-3.49-13.75-9.39-17.31-19.11-1.97-5.38-2.58-12.75-3-19.23-.88-13.75-.15-21.91.88-33.19l.13-1.43c1.96-21.72,6.81-25.69,10.73-30.43l.55-.66c5.9-6.91,14.62-11.43,21.62-11.43.68,0,1.35.01,2.01.03,11.78.32,22.57,5.34,28.14,13.08,2.74,3.81,4.95,8.11,5.9,11.48,1.28,4.54,1.93,11.9,2.44,18.43,1.46,18.67.31,30.03-2.01,42.33Z"/>
      <path d="M365.09,318.34c.78.13,10.23.37,12.52.19,13.81-.84,20.58-5.43,21.94-6.28,7.27-4.5,10.23-10.68,9.88-11.92l-.11-.39-.38-.12c-.38-.12-5.83-.08-7.51-.07-.03,0-.06,0-.09,0-.53,0-.84.39-1.6,1.34-2.21,2.74-8.26,9.56-22.58,12.16-3.48.63-11.36.96-13.25.96-.88,0-.89,2.67-.65,3.18.33.67,1.77.93,1.83.94Z"/>
    </g>
  </g>
</svg>